v -1.000000 -1.000000 1.000000
v -1.000000 1.000000 1.000000
v -1.000000 -1.000000 -1.000000
v -1.000000 1.000000 -1.000000
v 1.000000 -1.000000 1.000000
v 1.000000 1.000000 1.000000
v 1.000000 -1.000000 -1.000000
v 1.000000 1.000000 -1.000000

vt 0.625000 0.000087
vt 0.874957 0.000087
vt 0.874956 0.250044
vt 0.375043 0.999913
vt 0.375043 0.749957
vt 0.625000 0.749957
vt 0.375043 0.250043
vt 0.125087 0.250043
vt 0.125087 0.000087
vt 0.625000 0.250044
vt 0.625000 0.500000
vt 0.375043 0.500000
vt 0.375043 0.000087
vt 0.624999 0.999913

vn -1.000000 0.000000 0.000000
vn 0.000000 0.000000 -1.000000
vn 1.000000 0.000000 0.000000
vn 0.000000 0.000000 1.000000
vn 0.000000 -1.000000 0.000000
vn 0.000000 1.000000 0.000000

f 4/1/1 3/2/1 1/3/1
f 8/4/2 7/5/2 3/6/2
f 6/7/3 5/8/3 7/9/3
f 2/10/4 1/11/4 5/12/4
f 3/6/5 7/5/5 5/12/5
f 8/13/6 4/1/6 2/10/6
f 2/10/1 4/1/1 1/3/1
f 4/14/2 8/4/2 3/6/2
f 8/13/3 6/7/3 7/9/3
f 6/7/4 2/10/4 5/12/4
f 1/11/5 3/6/5 5/12/5
f 6/7/6 8/13/6 2/10/6
