ply
format ascii 1.0
comment vertices, texcoords, normals (not perpendicular), triangulated
element vertex 8
property float x
property float y
property float z
property float nx
property float ny
property float nz
property float s
property float t
element face 12
property list uchar int vertex_indices
end_header
1 -1 -1 0.666667 -0.666667 -0.333333 1 -1
1 -1 1 0.408248 -0.408248 0.816497 1 -1
-1 -1 1 -0.666667 -0.666667 0.333333 -1 -1
-1 -1 -1 -0.408248 -0.408248 -0.816497 -1 -1
1 1 -0.999999 0.333333 0.666667 -0.666667 1 1
0.999999 1 1 0.816496 0.408248 0.408249 0.999999 1
-1 1 1 -0.333334 0.666667 0.666667 -1 1
-1 1 -1 -0.816496 0.408248 -0.408248 -1 1
3 0 1 2 
3 0 2 3 
3 4 7 6 
3 4 6 5 
3 0 4 5 
3 0 5 1 
3 1 5 6 
3 1 6 2 
3 2 6 7 
3 2 7 3 
3 4 0 3 
3 4 3 7 
