ply
format ascii 1.0
comment vertices, texcoords, normals (perpendicular), not triangulated
element vertex 24
property float x
property float y
property float z
property float nx
property float ny
property float nz
property float s
property float t
element face 6
property list uchar uint vertex_indices
end_header
1.000000 -1.000000 -1.000000 0.000000 -1.000000 0.000000 0.000200 0.999800
1.000000 -1.000000 1.000000 0.000000 -1.000000 0.000000 0.333134 0.999800
-1.000000 -1.000000 1.000000 0.000000 -1.000000 0.000000 0.333134 0.666867
-1.000000 -1.000000 -1.000000 0.000000 -1.000000 0.000000 0.000200 0.666867
1.000000 1.000000 -0.999999 0.000000 1.000000 0.000000 0.000200 0.333134
-1.000000 1.000000 -1.000000 0.000000 1.000000 0.000000 0.000200 0.000200
-1.000000 1.000000 1.000000 0.000000 1.000000 0.000000 0.333134 0.000200
0.999999 1.000000 1.000001 0.000000 1.000000 0.000000 0.333134 0.333134
1.000000 -1.000000 -1.000000 1.000000 0.000000 0.000000 0.000200 0.666467
1.000000 1.000000 -0.999999 1.000000 0.000000 0.000000 0.000200 0.333533
0.999999 1.000000 1.000001 1.000000 0.000000 0.000000 0.333134 0.333533
1.000000 -1.000000 1.000000 1.000000 0.000000 0.000000 0.333134 0.666467
1.000000 -1.000000 1.000000 -0.000000 -0.000000 1.000000 0.333533 0.666467
0.999999 1.000000 1.000001 -0.000000 -0.000000 1.000000 0.333533 0.333533
-1.000000 1.000000 1.000000 -0.000000 -0.000000 1.000000 0.666467 0.333533
-1.000000 -1.000000 1.000000 -0.000000 -0.000000 1.000000 0.666467 0.666467
-1.000000 -1.000000 1.000000 -1.000000 -0.000000 -0.000000 0.999800 0.000200
-1.000000 1.000000 1.000000 -1.000000 -0.000000 -0.000000 0.666866 0.000200
-1.000000 1.000000 -1.000000 -1.000000 -0.000000 -0.000000 0.666866 0.333133
-1.000000 -1.000000 -1.000000 -1.000000 -0.000000 -0.000000 0.999800 0.333134
1.000000 1.000000 -0.999999 0.000000 0.000000 -1.000000 0.333533 0.333134
1.000000 -1.000000 -1.000000 0.000000 0.000000 -1.000000 0.666467 0.333134
-1.000000 -1.000000 -1.000000 0.000000 0.000000 -1.000000 0.666467 0.000200
-1.000000 1.000000 -1.000000 0.000000 0.000000 -1.000000 0.333533 0.000200
4 0 1 2 3
4 4 5 6 7
4 8 9 10 11
4 12 13 14 15
4 16 17 18 19
4 20 21 22 23
